<svg xmlns="http://www.w3.org/2000/svg" height="40px" viewBox="0 -960 960 960" width="40px" fill="#FFFFFF"><path d="M200-160v-340q0-142 99-241t241-99q142 0 241 99t99 241q0 142-99 241t-241 99H200Zm66.67-66.67H540q113.54 0 193.44-79.85 79.89-79.86 79.89-193.34 0-113.47-79.85-193.47-79.86-80-193.34-80-113.47 0-193.47 79.89-80 79.9-80 193.44v273.33ZM639-401q41-41 41-99t-41-99q-41-41-99-41t-99 41q-41 41-41 99t41 99q41 41 99 41t99-41Zm-150.83-47.01q-21.5-21.34-21.5-51.83t21.34-51.99q21.34-21.5 51.83-21.5t51.99 21.34q21.5 21.34 21.5 51.83t-21.34 51.99q-21.34 21.5-51.83 21.5t-51.99-21.34ZM80-160v-200h66.67v200H80Zm460-340Z"/></svg>